<svg width="60" height="66" viewBox="0 0 60 66" fill="none" xmlns="http://www.w3.org/2000/svg">
<g clip-path="url(#clip0_484_1460)">
<path d="M36.6099 33.0866C36.6099 33.0866 48.007 9.39694 55.3226 0.140913C55.5825 -0.185202 56.0982 0.100651 55.9582 0.49521C54.2153 5.47148 49.5021 18.8663 47.7592 23.0253C47.4673 23.7218 46.9796 24.3177 46.352 24.7284C44.629 25.8557 40.7274 28.8632 38.8845 33.9522L36.6099 33.0866Z" fill="#00C896"/>
<path d="M39.1166 33.8516C39.1166 33.8516 55.0311 54.735 59.9641 65.4686C60.14 65.8471 59.6523 66.1852 59.3645 65.8833C55.7306 62.0867 45.9565 51.8322 43.0422 48.4019C42.5545 47.8262 42.2467 47.1216 42.1628 46.3728C41.9349 44.3194 41.0155 39.4559 37.3257 35.5184L39.1166 33.8516Z" fill="#00C896"/>
<path d="M37.4133 35.784C37.4133 35.784 12.1204 42.4271 0.383491 42.8257C-0.0322599 42.8378 -0.14819 42.258 0.239577 42.109C5.12864 40.2168 18.3087 35.1358 22.5822 33.7669C23.2977 33.5374 24.0613 33.5254 24.7808 33.7428C26.7477 34.3306 31.5568 35.3693 36.5938 33.4771L37.4133 35.784Z" fill="#00C896"/>
<path d="M39.8562 34.2501C39.8562 35.4902 38.8568 36.4927 37.6295 36.4927C36.3982 36.4927 35.4028 35.4861 35.4028 34.2501C35.4028 33.0141 36.4022 32.0076 37.6295 32.0076C38.8608 32.0036 39.8562 33.0101 39.8562 34.2501Z" fill="#E5FBFF"/>
</g>
<defs>
<clipPath id="clip0_484_1460">
<rect width="60" height="66" fill="white"/>
</clipPath>
</defs>
</svg>
